<mxfile host="app.diagrams.net" modified="2023-06-12T08:04:08.446Z" agent="Mozilla/5.0 (Windows NT 10.0; Win64; x64; rv:109.0) Gecko/20100101 Firefox/113.0" etag="sl-mVHKkFTl-rBm_12UW" version="21.3.7" type="github">
  <diagram name="Page-1" id="JrUIfgVRSp0UM8ETx353">
    <mxGraphModel dx="1248" dy="698" grid="1" gridSize="10" guides="1" tooltips="1" connect="1" arrows="1" fold="1" page="1" pageScale="1" pageWidth="827" pageHeight="1169" math="0" shadow="0">
      <root>
        <mxCell id="0" />
        <mxCell id="1" parent="0" />
        <mxCell id="n7JFr-5hj81nrRRgK0mp-3" value="Réserver un parasol" style="ellipse;whiteSpace=wrap;html=1;" parent="1" vertex="1">
          <mxGeometry x="110" y="140" width="140" height="50" as="geometry" />
        </mxCell>
        <mxCell id="n7JFr-5hj81nrRRgK0mp-4" value="Payer une réservation" style="ellipse;whiteSpace=wrap;html=1;" parent="1" vertex="1">
          <mxGeometry x="110" y="210" width="140" height="50" as="geometry" />
        </mxCell>
        <mxCell id="n7JFr-5hj81nrRRgK0mp-5" value="Préciser les accessoires sous le parasol (fauteils, lits)" style="ellipse;whiteSpace=wrap;html=1;" parent="1" vertex="1">
          <mxGeometry x="370" y="140" width="140" height="50" as="geometry" />
        </mxCell>
        <mxCell id="n7JFr-5hj81nrRRgK0mp-9" value="S&#39;inscrire" style="ellipse;whiteSpace=wrap;html=1;" parent="1" vertex="1">
          <mxGeometry x="110" y="280" width="140" height="50" as="geometry" />
        </mxCell>
        <mxCell id="n7JFr-5hj81nrRRgK0mp-10" value="S&#39;authentifier" style="ellipse;whiteSpace=wrap;html=1;" parent="1" vertex="1">
          <mxGeometry x="110" y="350" width="140" height="50" as="geometry" />
        </mxCell>
        <mxCell id="n7JFr-5hj81nrRRgK0mp-11" value="Voir ses réservations" style="ellipse;whiteSpace=wrap;html=1;" parent="1" vertex="1">
          <mxGeometry x="110" y="420" width="140" height="50" as="geometry" />
        </mxCell>
        <mxCell id="n7JFr-5hj81nrRRgK0mp-13" value="Se déconnecter" style="ellipse;whiteSpace=wrap;html=1;" parent="1" vertex="1">
          <mxGeometry x="110" y="610" width="140" height="50" as="geometry" />
        </mxCell>
        <mxCell id="n7JFr-5hj81nrRRgK0mp-14" value="Client" style="shape=umlActor;verticalLabelPosition=bottom;verticalAlign=top;html=1;" parent="1" vertex="1">
          <mxGeometry x="10" y="370" width="30" height="60" as="geometry" />
        </mxCell>
        <mxCell id="4E5cfMpJ-VGpKoXoF7s6-1" value="Ajouter une réservation" style="ellipse;whiteSpace=wrap;html=1;" vertex="1" parent="1">
          <mxGeometry x="110" y="480" width="140" height="50" as="geometry" />
        </mxCell>
        <mxCell id="4E5cfMpJ-VGpKoXoF7s6-2" value="Modifier ses informations" style="ellipse;whiteSpace=wrap;html=1;" vertex="1" parent="1">
          <mxGeometry x="110" y="540" width="140" height="50" as="geometry" />
        </mxCell>
        <mxCell id="4E5cfMpJ-VGpKoXoF7s6-4" value="" style="endArrow=none;html=1;rounded=0;exitX=0.5;exitY=0.5;exitDx=0;exitDy=0;exitPerimeter=0;" edge="1" parent="1" source="n7JFr-5hj81nrRRgK0mp-14">
          <mxGeometry width="50" height="50" relative="1" as="geometry">
            <mxPoint x="60" y="220" as="sourcePoint" />
            <mxPoint x="110" y="170" as="targetPoint" />
          </mxGeometry>
        </mxCell>
        <mxCell id="4E5cfMpJ-VGpKoXoF7s6-5" value="" style="endArrow=none;html=1;rounded=0;exitX=0.5;exitY=0.5;exitDx=0;exitDy=0;exitPerimeter=0;" edge="1" parent="1" source="n7JFr-5hj81nrRRgK0mp-14">
          <mxGeometry width="50" height="50" relative="1" as="geometry">
            <mxPoint x="60" y="290" as="sourcePoint" />
            <mxPoint x="110" y="240" as="targetPoint" />
          </mxGeometry>
        </mxCell>
        <mxCell id="4E5cfMpJ-VGpKoXoF7s6-6" value="" style="endArrow=none;html=1;rounded=0;exitX=0.5;exitY=0.5;exitDx=0;exitDy=0;exitPerimeter=0;entryX=0;entryY=0.5;entryDx=0;entryDy=0;" edge="1" parent="1" source="n7JFr-5hj81nrRRgK0mp-14" target="n7JFr-5hj81nrRRgK0mp-9">
          <mxGeometry width="50" height="50" relative="1" as="geometry">
            <mxPoint x="90" y="370" as="sourcePoint" />
            <mxPoint x="140" y="320" as="targetPoint" />
          </mxGeometry>
        </mxCell>
        <mxCell id="4E5cfMpJ-VGpKoXoF7s6-7" value="" style="endArrow=none;html=1;rounded=0;" edge="1" parent="1">
          <mxGeometry width="50" height="50" relative="1" as="geometry">
            <mxPoint x="30" y="400" as="sourcePoint" />
            <mxPoint x="110" y="380" as="targetPoint" />
          </mxGeometry>
        </mxCell>
        <mxCell id="4E5cfMpJ-VGpKoXoF7s6-8" value="" style="endArrow=none;html=1;rounded=0;exitX=0.5;exitY=0.5;exitDx=0;exitDy=0;exitPerimeter=0;" edge="1" parent="1" source="n7JFr-5hj81nrRRgK0mp-14">
          <mxGeometry width="50" height="50" relative="1" as="geometry">
            <mxPoint x="60" y="490" as="sourcePoint" />
            <mxPoint x="110" y="440" as="targetPoint" />
          </mxGeometry>
        </mxCell>
        <mxCell id="4E5cfMpJ-VGpKoXoF7s6-9" value="" style="endArrow=none;html=1;rounded=0;exitX=0.667;exitY=0.767;exitDx=0;exitDy=0;exitPerimeter=0;" edge="1" parent="1" source="n7JFr-5hj81nrRRgK0mp-14">
          <mxGeometry width="50" height="50" relative="1" as="geometry">
            <mxPoint x="60" y="560" as="sourcePoint" />
            <mxPoint x="110" y="510" as="targetPoint" />
          </mxGeometry>
        </mxCell>
        <mxCell id="4E5cfMpJ-VGpKoXoF7s6-10" value="" style="endArrow=none;html=1;rounded=0;" edge="1" parent="1">
          <mxGeometry width="50" height="50" relative="1" as="geometry">
            <mxPoint x="30" y="400" as="sourcePoint" />
            <mxPoint x="110" y="570" as="targetPoint" />
          </mxGeometry>
        </mxCell>
        <mxCell id="4E5cfMpJ-VGpKoXoF7s6-11" value="" style="endArrow=none;html=1;rounded=0;" edge="1" parent="1">
          <mxGeometry width="50" height="50" relative="1" as="geometry">
            <mxPoint x="20" y="400" as="sourcePoint" />
            <mxPoint x="110" y="640" as="targetPoint" />
          </mxGeometry>
        </mxCell>
        <mxCell id="4E5cfMpJ-VGpKoXoF7s6-12" value="&amp;lt;&amp;lt; includes &amp;gt;&amp;gt;" style="endArrow=open;endSize=12;dashed=1;html=1;rounded=0;entryX=0;entryY=0.5;entryDx=0;entryDy=0;" edge="1" parent="1" target="n7JFr-5hj81nrRRgK0mp-5">
          <mxGeometry width="160" relative="1" as="geometry">
            <mxPoint x="250" y="170" as="sourcePoint" />
            <mxPoint x="410" y="170" as="targetPoint" />
          </mxGeometry>
        </mxCell>
      </root>
    </mxGraphModel>
  </diagram>
</mxfile>
